<svg xmlns="http://www.w3.org/2000/svg" viewBox="0 0 32 32">
  <!-- Rubik's cube favicon - isometric 3D view -->
  <defs>
    <!-- Top face gradient (white/yellow) -->
    <linearGradient id="topGrad" x1="0%" y1="0%" x2="100%" y2="100%">
      <stop offset="0%" style="stop-color:#ffd93d"/>
      <stop offset="100%" style="stop-color:#f5c800"/>
    </linearGradient>
    <!-- Left face gradient (green) -->
    <linearGradient id="leftGrad" x1="0%" y1="0%" x2="100%" y2="100%">
      <stop offset="0%" style="stop-color:#2ed573"/>
      <stop offset="100%" style="stop-color:#20bf6b"/>
    </linearGradient>
    <!-- Right face gradient (red) -->
    <linearGradient id="rightGrad" x1="0%" y1="0%" x2="100%" y2="100%">
      <stop offset="0%" style="stop-color:#ff4757"/>
      <stop offset="100%" style="stop-color:#eb3b5a"/>
    </linearGradient>
  </defs>

  <!-- Background -->
  <rect width="32" height="32" fill="#0a0a0a" rx="4"/>

  <!-- Top face (3x3 grid) -->
  <g transform="translate(16, 6)">
    <!-- Row 1 -->
    <polygon points="0,0 5,-2.5 10,0 5,2.5" fill="url(#topGrad)" stroke="#0a0a0a" stroke-width="0.5"/>
    <polygon points="-5,2.5 0,0 5,2.5 0,5" fill="url(#topGrad)" stroke="#0a0a0a" stroke-width="0.5"/>
    <polygon points="-10,5 -5,2.5 0,5 -5,7.5" fill="url(#topGrad)" stroke="#0a0a0a" stroke-width="0.5"/>
    <!-- Row 2 -->
    <polygon points="5,2.5 10,0 15,2.5 10,5" fill="url(#topGrad)" stroke="#0a0a0a" stroke-width="0.5"/>
    <polygon points="0,5 5,2.5 10,5 5,7.5" fill="url(#topGrad)" stroke="#0a0a0a" stroke-width="0.5"/>
    <polygon points="-5,7.5 0,5 5,7.5 0,10" fill="url(#topGrad)" stroke="#0a0a0a" stroke-width="0.5"/>
    <!-- Row 3 -->
    <polygon points="10,5 15,2.5 20,5 15,7.5" fill="url(#topGrad)" stroke="#0a0a0a" stroke-width="0.5"/>
    <polygon points="5,7.5 10,5 15,7.5 10,10" fill="url(#topGrad)" stroke="#0a0a0a" stroke-width="0.5"/>
    <polygon points="0,10 5,7.5 10,10 5,12.5" fill="url(#topGrad)" stroke="#0a0a0a" stroke-width="0.5"/>
  </g>

  <!-- Left face (3x3 grid) -->
  <g transform="translate(6, 13.5)">
    <polygon points="0,0 5,2.5 5,7.5 0,5" fill="url(#leftGrad)" stroke="#0a0a0a" stroke-width="0.5"/>
    <polygon points="0,5 5,7.5 5,12.5 0,10" fill="url(#leftGrad)" stroke="#0a0a0a" stroke-width="0.5"/>
    <polygon points="0,10 5,12.5 5,17.5 0,15" fill="url(#leftGrad)" stroke="#0a0a0a" stroke-width="0.5"/>
    <polygon points="5,2.5 10,5 10,10 5,7.5" fill="url(#leftGrad)" stroke="#0a0a0a" stroke-width="0.5"/>
    <polygon points="5,7.5 10,10 10,15 5,12.5" fill="url(#leftGrad)" stroke="#0a0a0a" stroke-width="0.5"/>
    <polygon points="5,12.5 10,15 10,20 5,17.5" fill="url(#leftGrad)" stroke="#0a0a0a" stroke-width="0.5"/>
    <polygon points="10,5 15,7.5 15,12.5 10,10" fill="url(#leftGrad)" stroke="#0a0a0a" stroke-width="0.5"/>
    <polygon points="10,10 15,12.5 15,17.5 10,15" fill="url(#leftGrad)" stroke="#0a0a0a" stroke-width="0.5"/>
    <polygon points="10,15 15,17.5 15,22.5 10,20" fill="url(#leftGrad)" stroke="#0a0a0a" stroke-width="0.5"/>
  </g>

  <!-- Right face (3x3 grid) -->
  <g transform="translate(21, 13.5)">
    <polygon points="0,7.5 5,5 5,10 0,12.5" fill="url(#rightGrad)" stroke="#0a0a0a" stroke-width="0.5"/>
    <polygon points="0,12.5 5,10 5,15 0,17.5" fill="url(#rightGrad)" stroke="#0a0a0a" stroke-width="0.5"/>
    <polygon points="0,17.5 5,15 5,20 0,22.5" fill="url(#rightGrad)" stroke="#0a0a0a" stroke-width="0.5"/>
    <polygon points="5,5 10,2.5 10,7.5 5,10" fill="url(#rightGrad)" stroke="#0a0a0a" stroke-width="0.5"/>
    <polygon points="5,10 10,7.5 10,12.5 5,15" fill="url(#rightGrad)" stroke="#0a0a0a" stroke-width="0.5"/>
    <polygon points="5,15 10,12.5 10,17.5 5,20" fill="url(#rightGrad)" stroke="#0a0a0a" stroke-width="0.5"/>
    <polygon points="10,2.5 15,0 15,5 10,7.5" fill="url(#rightGrad)" stroke="#0a0a0a" stroke-width="0.5"/>
    <polygon points="10,7.5 15,5 15,10 10,12.5" fill="url(#rightGrad)" stroke="#0a0a0a" stroke-width="0.5"/>
    <polygon points="10,12.5 15,10 15,15 10,17.5" fill="url(#rightGrad)" stroke="#0a0a0a" stroke-width="0.5"/>
  </g>
</svg>
